<svg width="43" height="31" viewBox="0 0 43 31" fill="none" xmlns="http://www.w3.org/2000/svg">
<path d="M3.90909 0C2.87234 0 1.87804 0.408258 1.14495 1.13496C0.41185 1.86166 0 2.84729 0 3.875V25.1875H3.90909C3.90909 26.7291 4.52687 28.2075 5.62651 29.2976C6.72616 30.3876 8.21759 31 9.77273 31C11.3279 31 12.8193 30.3876 13.9189 29.2976C15.0186 28.2075 15.6364 26.7291 15.6364 25.1875H27.3636C27.3636 26.7291 27.9814 28.2075 29.0811 29.2976C30.1807 30.3876 31.6721 31 33.2273 31C34.7824 31 36.2738 30.3876 37.3735 29.2976C38.4731 28.2075 39.0909 26.7291 39.0909 25.1875H43V15.5L37.1364 7.75H31.2727V0H3.90909ZM17.5909 3.875L25.4091 11.625L17.5909 19.375V13.5625H5.86364V9.6875H17.5909V3.875ZM31.2727 10.6562H36.1591L40.0095 15.5H31.2727V10.6562ZM9.77273 22.2812C10.5503 22.2812 11.296 22.5874 11.8458 23.1325C12.3957 23.6775 12.7045 24.4167 12.7045 25.1875C12.7045 25.9583 12.3957 26.6975 11.8458 27.2425C11.296 27.7876 10.5503 28.0938 9.77273 28.0938C8.99516 28.0938 8.24944 27.7876 7.69962 27.2425C7.1498 26.6975 6.84091 25.9583 6.84091 25.1875C6.84091 24.4167 7.1498 23.6775 7.69962 23.1325C8.24944 22.5874 8.99516 22.2812 9.77273 22.2812ZM33.2273 22.2812C34.0048 22.2812 34.7506 22.5874 35.3004 23.1325C35.8502 23.6775 36.1591 24.4167 36.1591 25.1875C36.1591 25.9583 35.8502 26.6975 35.3004 27.2425C34.7506 27.7876 34.0048 28.0938 33.2273 28.0938C32.4497 28.0938 31.704 27.7876 31.1542 27.2425C30.6043 26.6975 30.2955 25.9583 30.2955 25.1875C30.2955 24.4167 30.6043 23.6775 31.1542 23.1325C31.704 22.5874 32.4497 22.2812 33.2273 22.2812Z" fill="#6F80F6"/>
</svg>
