<svg width="39" height="31" viewBox="0 0 39 31" fill="none" xmlns="http://www.w3.org/2000/svg">
<path d="M0 3.875C0 1.74375 1.755 0 3.9 0H33.15C33.6672 0 34.1632 0.204129 34.5289 0.567481C34.8946 0.930832 35.1 1.42364 35.1 1.9375V3.875H3.9V5.8125H37.05C37.5672 5.8125 38.0632 6.01663 38.4289 6.37998C38.7946 6.74333 39 7.23614 39 7.75V27.125C39 28.1527 38.5891 29.1383 37.8577 29.865C37.1263 30.5917 36.1343 31 35.1 31H3.9C2.86566 31 1.87368 30.5917 1.14228 29.865C0.410892 29.1383 0 28.1527 0 27.125V3.875ZM32.175 21.3125C32.9508 21.3125 33.6947 21.0063 34.2433 20.4613C34.7918 19.9163 35.1 19.177 35.1 18.4062C35.1 17.6355 34.7918 16.8962 34.2433 16.3512C33.6947 15.8062 32.9508 15.5 32.175 15.5C31.3992 15.5 30.6553 15.8062 30.1067 16.3512C29.5582 16.8962 29.25 17.6355 29.25 18.4062C29.25 19.177 29.5582 19.9163 30.1067 20.4613C30.6553 21.0063 31.3992 21.3125 32.175 21.3125Z" fill="#6F80F6"/>
</svg>
